HIERARCHY
ROOT leWrist
{
	OFFSET 0.00 0.00 0.00
	CHANNELS 6 Xposition Yposition Zposition Xrotation Yrotation Zrotation
	JOINT leHand
	{
		OFFSET 0.11942 0.36471 -0.08791
		CHANNELS 3 Xrotation Yrotation Zrotation
		JOINT LeIndexMP
		{
			OFFSET 1.09197 2.42158 -0.70498
			CHANNELS 3 Zrotation Xrotation Yrotation
			JOINT LeIndexPIP
			{
				OFFSET 0.54914 1.69807 0.00037
				CHANNELS 3 Xrotation Yrotation Zrotation
				JOINT LeIndexDIP
				{
					OFFSET 0.34223 0.98477 -0.13890
					CHANNELS 3 Xrotation Yrotation Zrotation
					End Site
					{
						OFFSET 0.30414 0.90123 -0.07454
					}
				}
			}
		}
		JOINT LeMiddleMP
		{
			OFFSET 0.20570 2.50174 -0.52444
			CHANNELS 3 Zrotation Xrotation Yrotation
			JOINT LeMiddlePIP
			{
				OFFSET -0.25811 1.79891 -0.09553
				CHANNELS 3 Xrotation Yrotation Zrotation
				JOINT LeMiddleDIP
				{
					OFFSET -0.15680 1.09225 -0.05298
					CHANNELS 3 Xrotation Yrotation Zrotation
					End Site
					{
						OFFSET -0.15297 1.06215 -0.02141
					}
				}
			}
		}
		JOINT LeRingMP
		{
			OFFSET -0.68298 2.32110 -0.37433
			CHANNELS 3 Zrotation Xrotation Yrotation
			JOINT LeRingPIP
			{
				OFFSET -0.56320 1.55045 -0.08792
				CHANNELS 3 Xrotation Yrotation Zrotation
				JOINT LeRingDIP
				{
					OFFSET -0.34522 0.95085 -0.05080
					CHANNELS 3 Xrotation Yrotation Zrotation
					End Site
					{
						OFFSET -0.35953 0.99671 -0.01102
					}
				}
			}
		}
		JOINT LePinkyMP
		{
			OFFSET -1.60546 2.01050 -0.41468
			CHANNELS 3 Zrotation Xrotation Yrotation
			JOINT LePinkyPIP
			{
				OFFSET -0.81697 0.78962 -0.37932
				CHANNELS 3 Xrotation Yrotation Zrotation
				JOINT LePinkyDIP
				{
					OFFSET -0.51445 0.51600 -0.16745
					CHANNELS 3 Xrotation Yrotation Zrotation
					End Site
					{
						OFFSET -0.66687 0.68407 -0.15932
					}
				}
			}
		}
		JOINT LeThumbCMC
		{
			OFFSET 1.32642 0.01652 -0.91353
			CHANNELS 3 Xrotation Yrotation Zrotation
			JOINT LeThumbMP
			{
				OFFSET 0.56037 -0.04452 -1.10949
				CHANNELS 3 Xrotation Yrotation Zrotation
				JOINT LeThumbIP
				{
					OFFSET 0.56894 -0.31394 -0.93677
					CHANNELS 3 Xrotation Yrotation Zrotation
					End Site
					{
						OFFSET 0.15316 0.30870 -1.10710
					}
				}
			}
		}
	}
}
MOTION
Frames: 20
Frame Time: 0.008333
 32.4396 50.0293 -6.9587 -114.8427 9.9412 -101.8002 27.4899 2.2218 -18.1815 29.2566 -10.1045 10.5393 -14.7388 5.0617 -1.9133 -15.5099 5.3391 -1.9773 4.2663 -4.0080 -0.0483 -24.1979 -3.3019 -1.1127 -36.6809 -4.7395 -2.1970 -12.0270 -7.0503 -4.4631 -14.1053 -5.1230 0.1516 -19.8295 -7.1746 -0.1465 -32.8365 7.7960 -4.6143 -10.0550 -9.5063 1.6293 -10.2966 -9.7380 1.6480 32.6082 3.6166 53.9402 9.9417 8.0041 2.8745 -39.5566 -20.8736 -20.5048
 32.4388 50.0237 -6.9574 -114.8438 9.8108 -101.6785 27.3524 2.1813 -18.2476 29.1337 -10.1433 10.5461 -14.4398 4.9544 -1.8875 -15.2989 5.2631 -1.9601 4.1711 -4.2986 -0.0796 -23.1390 -3.1695 -1.0355 -37.4036 -4.8149 -2.2690 -12.0737 -6.9684 -4.4199 -14.3081 -5.1964 0.1446 -19.6254 -7.1022 -0.1323 -32.9005 7.8129 -4.6016 -10.2373 -9.6812 1.6435 -10.0410 -9.4929 1.6282 32.5145 3.6912 53.8127 10.0590 8.1025 2.9006 -39.2655 -20.7906 -20.3218
 32.4381 50.0176 -6.9586 -114.8591 9.8112 -101.6760 27.3035 2.2214 -18.2346 29.0484 -10.1417 10.5192 -14.3425 4.9195 -1.8789 -15.4042 5.3010 -1.9687 4.0911 -4.1816 -0.0816 -22.9826 -3.1498 -1.0243 -37.5196 -4.8270 -2.2807 -12.1378 -6.7788 -4.3121 -14.6053 -5.3037 0.1338 -19.4879 -7.0534 -0.1229 -32.8822 7.7535 -4.9018 -9.6641 -9.1314 1.5969 -10.4764 -9.9104 1.6613 32.4503 3.8511 53.8831 10.0318 8.0796 2.8945 -39.3671 -20.8197 -20.3856
 32.4378 50.0116 -6.9551 -114.8342 9.9145 -101.5957 27.4678 2.1251 -18.3184 29.1376 -10.1528 10.5578 -14.6185 5.0186 -1.9030 -15.2633 5.2503 -1.9572 4.1378 -3.9536 -0.0601 -23.5273 -3.2182 -1.0636 -37.1323 -4.7867 -2.2419 -12.0689 -6.9311 -4.3959 -14.4468 -5.2465 0.1396 -19.9402 -7.2138 -0.1543 -32.7687 7.7229 -4.9246 -9.6673 -9.1344 1.5972 -10.6520 -10.0788 1.6738 32.3217 4.2895 53.6324 9.8951 7.9650 2.8641 -38.8623 -20.6740 -20.0689
 32.4401 50.0071 -6.9581 -114.8479 9.9049 -101.5419 27.4482 2.2207 -18.4328 29.1863 -10.1979 10.6221 -14.2656 4.8920 -1.8722 -16.4961 5.6950 -2.0537 4.1786 -4.0706 -0.0632 -22.9173 -3.1416 -1.0197 -37.5350 -4.8286 -2.2822 -12.0330 -6.9623 -4.4093 -14.4536 -5.2489 0.1394 -19.7133 -7.1334 -0.1384 -32.7522 7.7105 -4.9706 -9.6322 -9.1008 1.5941 -10.7696 -10.1916 1.6818 31.9515 3.9519 54.4831 10.2683 8.2782 2.9466 -39.5631 -20.8755 -20.5089
 32.4411 50.0036 -6.9592 -114.8362 9.9322 -101.5503 27.4619 2.1868 -18.4119 29.1623 -10.2341 10.6550 -14.3936 4.9379 -1.8834 -15.7261 5.4170 -1.9945 4.1109 -4.0923 -0.0730 -22.7144 -3.1160 -1.0053 -37.7305 -4.8488 -2.3019 -12.0116 -7.0590 -4.4659 -14.2970 -5.1923 0.1450 -19.7267 -7.1382 -0.1393 -32.7281 7.7007 -4.9930 -9.6853 -9.1517 1.5987 -10.6170 -10.0452 1.6713 31.7892 4.1789 54.4981 10.1984 8.2195 2.9313 -39.5654 -20.8761 -20.5103
 32.4427 49.9996 -6.9611 -114.7855 9.9411 -101.5821 27.4835 2.1693 -18.3777 29.1741 -10.3044 10.7363 -14.9488 5.1372 -1.9311 -14.7939 5.0815 -1.9180 4.0729 -4.1097 -0.0788 -22.5378 -3.0936 -0.9928 -37.8942 -4.8656 -2.3184 -11.9783 -7.1442 -4.5132 -14.2434 -5.1730 0.1469 -19.6238 -7.1017 -0.1322 -32.6910 7.6838 -5.0367 -9.7035 -9.1692 1.6003 -10.5773 -10.0072 1.6685 31.6991 4.2348 54.3535 10.3470 8.3443 2.9637 -39.3797 -20.8233 -20.3936
 32.4415 49.9982 -6.9624 -114.7990 10.0127 -101.5814 27.4653 2.1180 -18.3145 29.1886 -10.6007 11.0688 -14.1229 4.8409 -1.8595 -16.0760 5.5432 -2.0219 4.0349 -4.5156 -0.1121 -21.2210 -2.9259 -0.9020 -38.6514 -4.9430 -2.3956 -12.0133 -7.2338 -4.5750 -13.9941 -5.0828 0.1554 -19.7423 -7.1437 -0.1404 -32.8150 7.7541 -4.8143 -9.9919 -9.4457 1.6242 -10.4837 -9.9174 1.6618 31.7670 4.6553 53.8794 10.1821 8.2058 2.9277 -39.2882 -20.7971 -20.3361
 32.4436 49.9970 -6.9638 -114.8237 10.0004 -101.5568 27.3999 2.2110 -18.3257 29.1307 -10.4718 10.9082 -14.6443 5.0278 -1.9052 -15.2303 5.2384 -1.9545 3.9344 -4.1088 -0.0958 -21.8786 -3.0100 -0.9469 -38.2466 -4.9018 -2.3542 -11.9966 -7.0995 -4.4885 -14.3320 -5.2050 0.1437 -19.5409 -7.0723 -0.1265 -32.7876 7.7426 -4.8416 -9.9998 -9.4534 1.6249 -10.2669 -9.7095 1.6458 31.5365 4.5465 54.1802 10.2950 8.3006 2.9524 -39.6490 -20.8998 -20.5629
 32.4452 49.9950 -6.9669 -114.7866 10.1098 -101.6331 27.4715 2.3355 -18.2532 29.0570 -10.6304 11.0604 -14.1070 4.8352 -1.8581 -15.7499 5.4256 -1.9964 3.8631 -4.0765 -0.1022 -21.6091 -2.9756 -0.9284 -38.4485 -4.9224 -2.3748 -12.0480 -6.9970 -4.4334 -14.5534 -5.2850 0.1357 -19.3733 -7.0127 -0.1152 -32.8013 7.7424 -4.8604 -10.0199 -9.4727 1.6265 -10.1819 -9.6280 1.6392 31.5277 4.4222 54.1356 10.4464 8.4279 2.9853 -39.3256 -20.8079 -20.3596
 32.4475 49.9925 -6.9706 -114.7382 10.1440 -101.6118 27.4741 2.3401 -18.2531 29.0306 -10.6094 11.0291 -14.6549 5.0316 -1.9061 -15.7677 5.4320 -1.9978 3.7806 -4.0403 -0.1096 -21.4038 -2.9494 -0.9144 -38.7421 -4.9522 -2.4049 -12.0949 -7.0088 -4.4487 -14.4033 -5.2308 0.1412 -19.4258 -7.0314 -0.1187 -32.8832 7.7680 -4.8242 -10.0630 -9.5140 1.6299 -10.1940 -9.6396 1.6402 31.4331 4.3897 54.2512 10.4575 8.4372 2.9877 -39.4623 -20.8469 -20.4455
 32.4482 49.9924 -6.9730 -114.7332 10.1881 -101.6632 27.4273 2.3157 -18.1897 29.0570 -10.7399 11.1812 -14.2639 4.8914 -1.8720 -15.7519 5.4263 -1.9966 3.7357 -3.9627 -0.1092 -21.3051 -2.9367 -0.9077 -38.8224 -4.9604 -2.4131 -12.0662 -6.8984 -4.3750 -14.4224 -5.2377 0.1405 -19.7574 -7.1491 -0.1414 -32.8746 7.8010 -4.6346 -10.0475 -9.4991 1.6287 -10.4055 -9.8425 1.6561 31.3404 4.6299 54.2563 10.2916 8.2977 2.9517 -39.4138 -20.8330 -20.4150
 32.4490 49.9914 -6.9758 -114.7171 10.1662 -101.6513 27.3865 2.3510 -18.1775 29.0469 -10.7319 11.1691 -14.5431 4.9915 -1.8964 -15.4691 5.3244 -1.9740 3.6516 -3.9014 -0.1146 -21.2929 -2.9352 -0.9069 -38.8483 -4.9630 -2.4158 -12.0779 -6.8944 -4.3744 -14.3786 -5.2218 0.1421 -19.7416 -7.1434 -0.1403 -32.8971 7.8027 -4.6528 -10.0193 -9.4720 1.6264 -10.4377 -9.8733 1.6585 31.3430 4.6885 54.2544 10.2785 8.2868 2.9488 -39.6606 -20.9030 -20.5702
 32.4499 49.9909 -6.9779 -114.7420 10.1201 -101.6529 27.3648 2.4204 -18.1652 29.0796 -10.8795 11.3423 -14.3723 4.9302 -1.8816 -16.1417 5.5669 -2.0269 3.6090 -3.9439 -0.1230 -21.2775 -2.9332 -0.9058 -38.8063 -4.9587 -2.4115 -12.0597 -6.9702 -4.4187 -14.2878 -5.1890 0.1453 -19.5650 -7.0808 -0.1282 -32.8605 7.7703 -4.7833 -9.8942 -9.3520 1.6163 -10.5618 -9.9923 1.6674 31.3680 4.7539 53.9796 10.3504 8.3472 2.9645 -39.8011 -20.9426 -20.6586
 32.4510 49.9907 -6.9808 -114.7509 10.0965 -101.6595 27.3215 2.4308 -18.1458 29.0942 -10.9435 11.4175 -14.4055 4.9421 -1.8845 -16.0759 5.5432 -2.0218 3.5141 -3.9321 -0.1335 -21.2813 -2.9337 -0.9061 -39.0778 -4.9861 -2.4394 -12.0428 -6.8653 -4.3505 -14.4988 -5.2653 0.1377 -19.4666 -7.0459 -0.1215 -32.8494 7.7636 -4.8054 -9.8014 -9.2631 1.6086 -10.6019 -10.0308 1.6703 31.3213 4.8233 53.8281 10.4025 8.3909 2.9758 -39.0224 -20.7206 -20.1692
 32.4521 49.9878 -6.9837 -114.7204 10.1476 -101.6525 27.3962 2.3390 -18.1438 29.0880 -11.0141 11.4934 -14.4562 4.9603 -1.8889 -15.5662 5.3594 -1.9818 3.4504 -4.0985 -0.1546 -21.0172 -2.8998 -0.8883 -39.2506 -5.0035 -2.4573 -11.9161 -6.8786 -4.3377 -14.4916 -5.2627 0.1380 -19.5838 -7.0875 -0.1295 -32.8379 7.7751 -4.7290 -9.8414 -9.3014 1.6119 -10.5541 -9.9849 1.6669 31.2594 5.0492 53.8667 10.2434 8.2573 2.9412 -39.2259 -20.7793 -20.2969
 32.4529 49.9863 -6.9862 -114.7199 10.1400 -101.6613 27.3875 2.3365 -18.1415 29.1385 -11.0507 11.5504 -14.4687 4.9648 -1.8900 -15.6126 5.3761 -1.9855 3.4104 -3.9270 -0.1455 -21.3652 -2.9444 -0.9118 -39.0624 -4.9846 -2.4378 -11.8935 -6.8828 -4.3366 -14.3786 -5.2218 0.1421 -19.6549 -7.1127 -0.1344 -32.8026 7.7689 -4.7188 -9.8007 -9.2624 1.6085 -10.5742 -10.0043 1.6683 31.1896 5.0826 54.0169 10.2157 8.2340 2.9351 -39.2328 -20.7813 -20.3013
 32.4555 49.9821 -6.9909 -114.7017 10.0723 -101.4833 27.3907 2.2011 -18.2603 29.0530 -11.1334 11.6133 -14.5902 5.0084 -1.9005 -15.4992 5.3352 -1.9764 3.2699 -4.1527 -0.1814 -21.0522 -2.9043 -0.8907 -39.0798 -4.9864 -2.4396 -12.0096 -6.9729 -4.4120 -14.2406 -5.1720 0.1470 -19.9226 -7.2076 -0.1530 -32.9645 7.8245 -4.6175 -10.0112 -9.4643 1.6258 -10.5164 -9.9488 1.6642 31.1313 4.8877 53.9346 10.4310 8.4149 2.9819 -39.4261 -20.8365 -20.4227
 32.4552 49.9825 -6.9921 -114.7154 10.0425 -101.5128 27.2995 2.2377 -18.1805 29.0571 -11.0678 11.5424 -14.5478 4.9932 -1.8968 -15.8265 5.4532 -2.0025 3.3689 -4.0792 -0.1631 -21.1211 -2.9131 -0.8953 -39.0056 -4.9789 -2.4320 -12.0039 -6.9429 -4.3923 -14.1795 -5.1499 0.1491 -19.9189 -7.2063 -0.1528 -32.9382 7.7900 -4.7734 -9.8730 -9.3317 1.6145 -10.2917 -9.7333 1.6476 31.1714 5.0597 53.9164 10.3346 8.3339 2.9611 -39.5632 -20.8755 -20.5089
 32.4560 49.9821 -6.9938 -114.7487 10.0199 -101.5192 27.2921 2.3025 -18.1906 29.1950 -11.1127 11.6376 -14.7129 5.0524 -1.9111 -16.1107 5.5557 -2.0245 3.4545 -4.0795 -0.1526 -21.1880 -2.9217 -0.8998 -38.9544 -4.9737 -2.4267 -11.9570 -6.9029 -4.3596 -14.4777 -5.2577 0.1385 -19.8345 -7.1764 -0.1468 -32.8393 7.7434 -4.9025 -9.8438 -9.3037 1.6121 -10.3034 -9.7445 1.6485 31.0430 5.0251 54.1914 10.2544 8.2665 2.9436 -39.5165 -20.8622 -20.4795
